# xmcd
#
# Track frame offsets:
#	150
#	16592
#	31587
#	47387
#	65717
#	82517
#	97472
#	119325
#	133872
#	150342
#
# Disc length: 2213 seconds
#
# Revision: 9
# Processed by: cddbd v1.5.2PL0 Copyright (c) Steve Scherf et al.
# Submitted via: EasyCDDAExtractor 15.3.0.1
#
DISCID=6e08a30a
DTITLE=Rocio Durcal - Caricias
DYEAR=2000
DGENRE=Latin
TTITLE0=Caricias
TTITLE1=Quiereme Un Poquito
TTITLE2=Infiel
TTITLE3=Porque Te Quiero
TTITLE4=Necesito
TTITLE5=Amor Bonito
TTITLE6=Quien Sabe
TTITLE7=Ni Siquiera Una Mirada
TTITLE8=Esperaba Demasiado
TTITLE9=Que Mas Quieres De Mi
EXTD=
EXTT0=
EXTT1=
EXTT2=
EXTT3=
EXTT4=
EXTT5=
EXTT6=
EXTT7=
EXTT8=
EXTT9=
PLAYORDER=
